<svg width="263" height="269" viewBox="0 0 263 269" fill="none" xmlns="http://www.w3.org/2000/svg">
<rect width="30.2734" height="30.2734" rx="6.43309" transform="matrix(0.866025 0.5 -0.866025 0.5 70.4924 213.904)" fill="url(#paint0_linear_91_2422)"/>
<rect width="30.2734" height="30.2734" rx="6.43309" transform="matrix(0.866025 0.5 -0.866025 0.5 33.0291 191.956)" fill="url(#paint1_linear_91_2422)"/>
<rect width="30.2734" height="30.2734" rx="6.43309" transform="matrix(0.866025 0.5 -0.866025 0.5 174.179 126.111)" fill="url(#paint2_linear_91_2422)"/>
<rect width="30.2734" height="30.2734" rx="6.43309" transform="matrix(0.866025 0.5 -0.866025 0.5 225.643 185.144)" fill="url(#paint3_linear_91_2422)"/>
<rect width="30.2734" height="30.2734" rx="6.43309" transform="matrix(0.866025 0.5 -0.866025 0.5 44.3816 155.249)" fill="url(#paint4_linear_91_2422)"/>
<rect width="30.2734" height="60.8127" rx="6.43309" transform="matrix(0.866025 0.5 -0.866025 0.5 187.004 207.849)" fill="url(#paint5_linear_91_2422)"/>
<rect width="30.2734" height="47.7269" rx="6.43309" transform="matrix(0.866025 0.5 -0.866025 0.5 212.756 148.547)" fill="url(#paint6_linear_91_2422)"/>
<rect width="55.9249" height="55.9249" rx="6.43309" transform="matrix(0.866025 0.5 -0.866025 0.5 121.957 173.116)" fill="url(#paint7_linear_91_2422)"/>
<rect width="55.9249" height="55.9249" rx="6.43309" transform="matrix(0.866025 0.5 -0.866025 0.5 121.957 163.953)" fill="url(#paint8_linear_91_2422)"/>
<rect width="55.9249" height="55.9249" rx="6.43309" transform="matrix(0.866025 0.5 -0.866025 0.5 121.957 152.6)" fill="url(#paint9_linear_91_2422)"/>
<rect width="55.9249" height="55.9249" rx="6.43309" transform="matrix(0.866025 0.5 -0.866025 0.5 121.957 141.248)" fill="url(#paint10_linear_91_2422)"/>
<rect width="55.9249" height="55.9249" rx="6.43309" transform="matrix(0.866025 0.5 -0.866025 0.5 121.957 123.116)" fill="url(#paint11_linear_91_2422)"/>
<rect width="55.9249" height="55.9249" rx="6.43309" transform="matrix(0.866025 0.5 -0.866025 0.5 121.957 113.953)" fill="url(#paint12_linear_91_2422)"/>
<rect width="55.9249" height="55.9249" rx="6.43309" transform="matrix(0.866025 0.5 -0.866025 0.5 121.957 102.6)" fill="url(#paint13_linear_91_2422)"/>
<rect width="55.9249" height="55.9249" rx="6.43309" transform="matrix(0.866025 0.5 -0.866025 0.5 121.957 91.2477)" fill="url(#paint14_linear_91_2422)"/>
<rect width="55.9249" height="55.9249" rx="6.43309" transform="matrix(0.866025 0.5 -0.866025 0.5 121.957 73.1157)" fill="url(#paint15_linear_91_2422)"/>
<rect width="55.9249" height="55.9249" rx="6.43309" transform="matrix(0.866025 0.5 -0.866025 0.5 121.957 63.9527)" fill="url(#paint16_linear_91_2422)"/>
<rect width="55.9249" height="55.9249" rx="6.43309" transform="matrix(0.866025 0.5 -0.866025 0.5 121.957 52.6001)" fill="url(#paint17_linear_91_2422)"/>
<rect width="55.9249" height="55.9249" rx="6.43309" transform="matrix(0.866025 0.5 -0.866025 0.5 121.957 41.2477)" fill="url(#paint18_linear_91_2422)"/>
<rect width="30.2734" height="30.2734" rx="6.43309" transform="matrix(0.866025 0.5 -0.866025 0.5 70.4924 113.904)" fill="url(#paint19_linear_91_2422)"/>
<rect width="30.2734" height="30.2734" rx="6.43309" transform="matrix(0.866025 0.5 -0.866025 0.5 33.0291 91.9556)" fill="url(#paint20_linear_91_2422)"/>
<rect width="30.2734" height="30.2734" rx="6.43309" transform="matrix(0.866025 0.5 -0.866025 0.5 174.179 26.111)" fill="url(#paint21_linear_91_2422)"/>
<rect width="30.2734" height="30.2734" rx="6.43309" transform="matrix(0.866025 0.5 -0.866025 0.5 225.643 85.144)" fill="url(#paint22_linear_91_2422)"/>
<rect width="30.2734" height="30.2734" rx="6.43309" transform="matrix(0.866025 0.5 -0.866025 0.5 44.3816 55.249)" fill="url(#paint23_linear_91_2422)"/>
<rect width="30.2734" height="60.8127" rx="6.43309" transform="matrix(0.866025 0.5 -0.866025 0.5 187.004 107.849)" fill="url(#paint24_linear_91_2422)"/>
<rect width="30.2734" height="47.7269" rx="6.43309" transform="matrix(0.866025 0.5 -0.866025 0.5 212.756 48.5472)" fill="url(#paint25_linear_91_2422)"/>
<defs>
<linearGradient id="paint0_linear_91_2422" x1="31.0856" y1="29.4611" x2="-2.70257" y2="17.7275" gradientUnits="userSpaceOnUse">
<stop stop-color="#E05981"/>
<stop offset="0.646921" stop-color="#D55F81"/>
<stop offset="1" stop-color="#7A717A"/>
</linearGradient>
<linearGradient id="paint1_linear_91_2422" x1="25.8599" y1="25.9832" x2="-3.13253" y2="10.8935" gradientUnits="userSpaceOnUse">
<stop stop-color="#E4796C"/>
<stop offset="0.646921" stop-color="#E1DDCD"/>
<stop offset="1" stop-color="#EBF5EA"/>
</linearGradient>
<linearGradient id="paint2_linear_91_2422" x1="25.8599" y1="25.9832" x2="-3.13253" y2="10.8935" gradientUnits="userSpaceOnUse">
<stop stop-color="#E4796C"/>
<stop offset="0.646921" stop-color="#E1DDCD"/>
<stop offset="1" stop-color="#EBF5EA"/>
</linearGradient>
<linearGradient id="paint3_linear_91_2422" x1="25.8599" y1="25.9832" x2="-3.13253" y2="10.8935" gradientUnits="userSpaceOnUse">
<stop stop-color="#E4796C"/>
<stop offset="0.646921" stop-color="#E1DDCD"/>
<stop offset="1" stop-color="#EBF5EA"/>
</linearGradient>
<linearGradient id="paint4_linear_91_2422" x1="25.8599" y1="25.9832" x2="-3.13253" y2="10.8935" gradientUnits="userSpaceOnUse">
<stop stop-color="#E4796C"/>
<stop offset="0.646921" stop-color="#E1DDCD"/>
<stop offset="1" stop-color="#EBF5EA"/>
</linearGradient>
<linearGradient id="paint5_linear_91_2422" x1="15.3863" y1="64.8381" x2="-11.8676" y2="6.59725" gradientUnits="userSpaceOnUse">
<stop stop-color="#E85581"/>
<stop offset="0.431604" stop-color="#D55E81"/>
<stop offset="1" stop-color="#3A5063"/>
</linearGradient>
<linearGradient id="paint6_linear_91_2422" x1="15.3863" y1="50.8861" x2="-9.82976" y2="4.79123" gradientUnits="userSpaceOnUse">
<stop stop-color="#F4B65F"/>
<stop offset="0.790692" stop-color="#EC5A7E"/>
<stop offset="1" stop-color="#EA4280"/>
</linearGradient>
<linearGradient id="paint7_linear_91_2422" x1="7.93486" y1="54.9806" x2="39.8365" y2="0.630412" gradientUnits="userSpaceOnUse">
<stop stop-color="#CDDFC5"/>
<stop offset="0.485207" stop-color="#F08C5A"/>
<stop offset="1" stop-color="#E94B4E"/>
</linearGradient>
<linearGradient id="paint8_linear_91_2422" x1="7.93486" y1="54.9806" x2="39.8365" y2="0.630412" gradientUnits="userSpaceOnUse">
<stop stop-color="#B4E1BA"/>
<stop offset="0.485207" stop-color="#F09E6E"/>
<stop offset="1" stop-color="#EA4081"/>
</linearGradient>
<linearGradient id="paint9_linear_91_2422" x1="7.93486" y1="54.9806" x2="39.8365" y2="0.630412" gradientUnits="userSpaceOnUse">
<stop stop-color="#EDEDED" stop-opacity="0.41"/>
<stop offset="0.485207" stop-color="#F2A770"/>
<stop offset="1" stop-color="#F6CFCF" stop-opacity="0.72"/>
</linearGradient>
<linearGradient id="paint10_linear_91_2422" x1="7.93486" y1="54.9806" x2="39.8365" y2="0.630412" gradientUnits="userSpaceOnUse">
<stop stop-color="#FCFCFC" stop-opacity="0.42"/>
<stop offset="0.485207" stop-color="#B0A997"/>
<stop offset="1" stop-color="#D9D2C8" stop-opacity="0.77"/>
</linearGradient>
<linearGradient id="paint11_linear_91_2422" x1="7.93486" y1="54.9806" x2="39.8365" y2="0.630412" gradientUnits="userSpaceOnUse">
<stop stop-color="#CDDFC5"/>
<stop offset="0.485207" stop-color="#F08C5A"/>
<stop offset="1" stop-color="#E94B4E"/>
</linearGradient>
<linearGradient id="paint12_linear_91_2422" x1="7.93486" y1="54.9806" x2="39.8365" y2="0.630412" gradientUnits="userSpaceOnUse">
<stop stop-color="#B4E1BA"/>
<stop offset="0.485207" stop-color="#F09E6E"/>
<stop offset="1" stop-color="#EA4081"/>
</linearGradient>
<linearGradient id="paint13_linear_91_2422" x1="7.93486" y1="54.9806" x2="39.8365" y2="0.630412" gradientUnits="userSpaceOnUse">
<stop stop-color="#EDEDED" stop-opacity="0.41"/>
<stop offset="0.485207" stop-color="#F2A770"/>
<stop offset="1" stop-color="#F6CFCF" stop-opacity="0.72"/>
</linearGradient>
<linearGradient id="paint14_linear_91_2422" x1="7.93486" y1="54.9806" x2="39.8365" y2="0.630412" gradientUnits="userSpaceOnUse">
<stop stop-color="#FCFCFC" stop-opacity="0.42"/>
<stop offset="0.485207" stop-color="#B0A997"/>
<stop offset="1" stop-color="#D9D2C8" stop-opacity="0.77"/>
</linearGradient>
<linearGradient id="paint15_linear_91_2422" x1="7.93486" y1="54.9806" x2="39.8365" y2="0.630412" gradientUnits="userSpaceOnUse">
<stop stop-color="#CDDFC5"/>
<stop offset="0.485207" stop-color="#F08C5A"/>
<stop offset="1" stop-color="#E94B4E"/>
</linearGradient>
<linearGradient id="paint16_linear_91_2422" x1="7.93486" y1="54.9806" x2="39.8365" y2="0.630412" gradientUnits="userSpaceOnUse">
<stop stop-color="#B4E1BA"/>
<stop offset="0.485207" stop-color="#F09E6E"/>
<stop offset="1" stop-color="#EA4081"/>
</linearGradient>
<linearGradient id="paint17_linear_91_2422" x1="7.93486" y1="54.9806" x2="39.8365" y2="0.630412" gradientUnits="userSpaceOnUse">
<stop stop-color="#EDEDED" stop-opacity="0.41"/>
<stop offset="0.485207" stop-color="#F2A770"/>
<stop offset="1" stop-color="#F6CFCF" stop-opacity="0.72"/>
</linearGradient>
<linearGradient id="paint18_linear_91_2422" x1="7.93486" y1="54.9806" x2="39.8365" y2="0.630412" gradientUnits="userSpaceOnUse">
<stop stop-color="#FCFCFC" stop-opacity="0.42"/>
<stop offset="0.485207" stop-color="#B0A997"/>
<stop offset="1" stop-color="#D9D2C8" stop-opacity="0.77"/>
</linearGradient>
<linearGradient id="paint19_linear_91_2422" x1="31.0856" y1="29.4611" x2="-2.70257" y2="17.7275" gradientUnits="userSpaceOnUse">
<stop stop-color="#E05981"/>
<stop offset="0.646921" stop-color="#D55F81"/>
<stop offset="1" stop-color="#7A717A"/>
</linearGradient>
<linearGradient id="paint20_linear_91_2422" x1="25.8599" y1="25.9832" x2="-3.13253" y2="10.8935" gradientUnits="userSpaceOnUse">
<stop stop-color="#E4796C"/>
<stop offset="0.646921" stop-color="#E1DDCD"/>
<stop offset="1" stop-color="#EBF5EA"/>
</linearGradient>
<linearGradient id="paint21_linear_91_2422" x1="25.8599" y1="25.9832" x2="-3.13253" y2="10.8935" gradientUnits="userSpaceOnUse">
<stop stop-color="#E4796C"/>
<stop offset="0.646921" stop-color="#E1DDCD"/>
<stop offset="1" stop-color="#EBF5EA"/>
</linearGradient>
<linearGradient id="paint22_linear_91_2422" x1="25.8599" y1="25.9832" x2="-3.13253" y2="10.8935" gradientUnits="userSpaceOnUse">
<stop stop-color="#E4796C"/>
<stop offset="0.646921" stop-color="#E1DDCD"/>
<stop offset="1" stop-color="#EBF5EA"/>
</linearGradient>
<linearGradient id="paint23_linear_91_2422" x1="25.8599" y1="25.9832" x2="-3.13253" y2="10.8935" gradientUnits="userSpaceOnUse">
<stop stop-color="#E4796C"/>
<stop offset="0.646921" stop-color="#E1DDCD"/>
<stop offset="1" stop-color="#EBF5EA"/>
</linearGradient>
<linearGradient id="paint24_linear_91_2422" x1="15.3863" y1="64.8381" x2="-11.8676" y2="6.59725" gradientUnits="userSpaceOnUse">
<stop stop-color="#E85581"/>
<stop offset="0.431604" stop-color="#D55E81"/>
<stop offset="1" stop-color="#3A5063"/>
</linearGradient>
<linearGradient id="paint25_linear_91_2422" x1="15.3863" y1="50.8861" x2="-9.82976" y2="4.79123" gradientUnits="userSpaceOnUse">
<stop stop-color="#F4B65F"/>
<stop offset="0.790692" stop-color="#EC5A7E"/>
<stop offset="1" stop-color="#EA4280"/>
</linearGradient>
</defs>
</svg>
