<svg width="59" height="58" viewBox="0 0 59 58" fill="none" xmlns="http://www.w3.org/2000/svg">
<path fill-rule="evenodd" clip-rule="evenodd" d="M58.5 48.5977V42.084C58.5 41.2707 57.8406 40.6113 57.0273 40.6113C56.214 40.6113 55.5547 41.2707 55.5547 42.084V48.5977C55.5547 52.158 52.658 55.0547 49.0977 55.0547H42.584C41.7707 55.0547 41.1113 55.714 41.1113 56.5273C41.1113 57.3406 41.7707 58 42.584 58H49.0977C54.2821 58 58.5 53.7821 58.5 48.5977ZM17.8887 56.5273C17.8887 55.714 17.2293 55.0547 16.416 55.0547H9.90234C6.34197 55.0547 3.44531 52.158 3.44531 48.5977V42.084C3.44531 41.2707 2.78596 40.6113 1.97266 40.6113C1.15935 40.6113 0.5 41.2707 0.5 42.084V48.5977C0.5 53.7821 4.71791 58 9.90234 58H16.416C17.2293 58 17.8887 57.3406 17.8887 56.5273ZM3.44531 15.916V9.40234C3.44531 5.84191 6.34197 2.94531 9.90234 2.94531H16.416C17.2293 2.94531 17.8887 2.28596 17.8887 1.47266C17.8887 0.659353 17.2293 0 16.416 0H9.90234C4.71791 0 0.5 4.21786 0.5 9.40234V15.916C0.5 16.7293 1.15935 17.3887 1.97266 17.3887C2.78596 17.3887 3.44531 16.7293 3.44531 15.916ZM58.5 15.916V9.40234C58.5 4.21786 54.2821 0 49.0977 0H42.584C41.7707 0 41.1113 0.659353 41.1113 1.47266C41.1113 2.28596 41.7707 2.94531 42.584 2.94531H49.0977C52.658 2.94531 55.5547 5.84191 55.5547 9.40234V15.916C55.5547 16.7293 56.214 17.3887 57.0273 17.3887C57.8406 17.3887 58.5 16.7293 58.5 15.916ZM39.663 42.8677C40.2834 42.2946 40.3218 41.327 39.7487 40.7066C39.1755 40.0862 38.208 40.0478 37.5876 40.6208C35.3799 42.6601 32.5077 43.7832 29.5 43.7832C26.4923 43.7832 23.6201 42.6601 21.4124 40.6208C20.7918 40.0478 19.8245 40.0862 19.2513 40.7066C18.6782 41.327 18.7166 42.2946 19.337 42.8677C22.1116 45.4304 25.7208 46.8418 29.5 46.8418C33.2792 46.8418 36.8884 45.4304 39.663 42.8677ZM32.5586 32.7383V21.8633C32.5586 21.0187 31.8739 20.334 31.0293 20.334C30.1847 20.334 29.5 21.0187 29.5 21.8633V32.7383C29.5 33.2068 29.1189 33.5879 28.6504 33.5879H27.4043C26.5597 33.5879 25.875 34.2726 25.875 35.1172C25.875 35.9618 26.5597 36.6465 27.4043 36.6465H28.6504C30.8054 36.6465 32.5586 34.8933 32.5586 32.7383ZM43.0938 26.1396V21.7783C43.0938 20.9806 42.4471 20.334 41.6494 20.334C40.8517 20.334 40.2051 20.9806 40.2051 21.7783V26.1396C40.2051 26.9373 40.8517 27.584 41.6494 27.584C42.4471 27.584 43.0938 26.9373 43.0938 26.1396ZM17.6904 27.584C16.8928 27.584 16.2461 26.9373 16.2461 26.1396V21.7783C16.2461 20.9806 16.8928 20.334 17.6904 20.334C18.4881 20.334 19.1348 20.9806 19.1348 21.7783V26.1396C19.1348 26.9373 18.4881 27.584 17.6904 27.584Z" fill="white"/>
</svg>
