<svg width="25" height="24" viewBox="0 0 25 24" fill="none" xmlns="http://www.w3.org/2000/svg">
<g id="Iconly/Bold/Setting">
<g id="Setting">
<g id="Setting_2">
<path fill-rule="evenodd" clip-rule="evenodd" d="M20.9023 13.5801C21.26 13.7701 21.536 14.0701 21.7301 14.3701C22.1083 14.9901 22.0776 15.7501 21.7097 16.4201L20.9943 17.6201C20.6162 18.2601 19.911 18.6601 19.1855 18.6601C18.8278 18.6601 18.4292 18.5601 18.1022 18.3601C17.8365 18.1901 17.5299 18.1301 17.2029 18.1301C16.1911 18.1301 15.3429 18.9601 15.3122 19.9501C15.3122 21.1001 14.372 22.0001 13.1968 22.0001H11.8069C10.6215 22.0001 9.68125 21.1001 9.68125 19.9501C9.66081 18.9601 8.81259 18.1301 7.80085 18.1301C7.46361 18.1301 7.15702 18.1901 6.90153 18.3601C6.5745 18.5601 6.16572 18.6601 5.81825 18.6601C5.08245 18.6601 4.37729 18.2601 3.99917 17.6201L3.29402 16.4201C2.9159 15.7701 2.89546 14.9901 3.27358 14.3701C3.43709 14.0701 3.74368 13.7701 4.09115 13.5801C4.37729 13.4401 4.56125 13.2101 4.73498 12.9401C5.24596 12.0801 4.93937 10.9501 4.07071 10.4401C3.05897 9.87012 2.73194 8.60012 3.31446 7.61012L3.99917 6.43012C4.59191 5.44012 5.85913 5.09012 6.88109 5.67012C7.77019 6.15012 8.925 5.83012 9.4462 4.98012C9.60972 4.70012 9.70169 4.40012 9.68125 4.10012C9.66081 3.71012 9.77323 3.34012 9.9674 3.04012C10.3455 2.42012 11.0302 2.02012 11.7763 2.00012H13.2172C13.9735 2.00012 14.6582 2.42012 15.0363 3.04012C15.2203 3.34012 15.3429 3.71012 15.3122 4.10012C15.2918 4.40012 15.3838 4.70012 15.5473 4.98012C16.0685 5.83012 17.2233 6.15012 18.1226 5.67012C19.1344 5.09012 20.4118 5.44012 20.9943 6.43012L21.679 7.61012C22.2718 8.60012 21.9447 9.87012 20.9228 10.4401C20.0541 10.9501 19.7475 12.0801 20.2687 12.9401C20.4322 13.2101 20.6162 13.4401 20.9023 13.5801ZM9.60972 12.0101C9.60972 13.5801 10.9076 14.8301 12.5121 14.8301C14.1165 14.8301 15.3838 13.5801 15.3838 12.0101C15.3838 10.4401 14.1165 9.18012 12.5121 9.18012C10.9076 9.18012 9.60972 10.4401 9.60972 12.0101Z" fill="url(#paint0_radial_98_52013)"/>
<path d="M21.7301 14.3701L22.1572 14.1097L22.1499 14.0984L21.7301 14.3701ZM20.9023 13.5801L21.1369 13.1386L21.1296 13.1347L21.1221 13.131L20.9023 13.5801ZM21.7097 16.4201L22.1392 16.6762L22.1437 16.6685L22.148 16.6608L21.7097 16.4201ZM20.9943 17.6201L20.5648 17.3641L20.5638 17.3658L20.9943 17.6201ZM18.1022 18.3601L17.8327 18.7814L17.8413 18.7867L18.1022 18.3601ZM15.3122 19.9501L14.8125 19.9346L14.8122 19.9424V19.9501H15.3122ZM9.68125 19.9501H10.1814L10.1811 19.9398L9.68125 19.9501ZM6.90153 18.3601L7.1624 18.7867L7.17055 18.7817L7.17851 18.7764L6.90153 18.3601ZM3.99917 17.6201L3.56809 17.8734L3.56869 17.8745L3.99917 17.6201ZM3.29402 16.4201L2.86182 16.6715L2.86294 16.6734L3.29402 16.4201ZM3.27358 14.3701L3.70046 14.6305L3.70679 14.6201L3.7126 14.6094L3.27358 14.3701ZM4.09115 13.5801L3.87141 13.131L3.86122 13.136L3.85126 13.1414L4.09115 13.5801ZM4.73498 12.9401L5.15545 13.2107L5.16028 13.2032L5.16483 13.1955L4.73498 12.9401ZM4.07071 10.4401L4.3239 10.0089L4.31613 10.0045L4.07071 10.4401ZM3.31446 7.61012L3.7454 7.86369L3.74692 7.86107L3.31446 7.61012ZM3.99917 6.43012L3.57014 6.17325L3.5667 6.17918L3.99917 6.43012ZM6.88109 5.67012L6.63424 6.10507L6.64356 6.1101L6.88109 5.67012ZM9.4462 4.98012L9.87255 5.24155L9.87797 5.23226L9.4462 4.98012ZM9.68125 4.10012L9.18188 4.12629L9.18241 4.13411L9.68125 4.10012ZM9.9674 3.04012L10.3873 3.3119L10.3943 3.30046L9.9674 3.04012ZM11.7763 2.00012V1.49994L11.7629 1.5003L11.7763 2.00012ZM15.0363 3.04012L14.6094 3.30046L14.6101 3.30149L15.0363 3.04012ZM15.3122 4.10012L14.8137 4.06093L14.8134 4.06614L15.3122 4.10012ZM15.5473 4.98012L15.1154 5.23232L15.121 5.24149L15.5473 4.98012ZM18.1226 5.67012L18.3581 6.11123L18.3647 6.10766L18.3713 6.1039L18.1226 5.67012ZM20.9943 6.43012L21.4268 6.17917L21.4253 6.17656L20.9943 6.43012ZM21.679 7.61012L21.2465 7.86109L21.25 7.86697L21.679 7.61012ZM20.9228 10.4401L20.6792 10.0033L20.6696 10.0089L20.9228 10.4401ZM20.2687 12.9401L20.6964 12.6811L20.6963 12.681L20.2687 12.9401ZM22.1499 14.0984C21.9242 13.7498 21.5906 13.3795 21.1369 13.1386L20.6678 14.0217C20.9295 14.1607 21.1477 14.3905 21.3104 14.6418L22.1499 14.0984ZM22.148 16.6608C22.5864 15.8624 22.6442 14.9086 22.157 14.1098L21.3033 14.6305C21.5723 15.0716 21.5688 15.6378 21.2714 16.1795L22.148 16.6608ZM21.4238 17.8762L22.1392 16.6762L21.2802 16.1641L20.5648 17.3641L21.4238 17.8762ZM19.1855 19.1601C20.0891 19.1601 20.9573 18.6657 21.4248 17.8745L20.5638 17.3658C20.275 17.8546 19.733 18.1601 19.1855 18.1601V19.1601ZM17.8413 18.7867C18.2531 19.0385 18.7433 19.1601 19.1855 19.1601V18.1601C18.9122 18.1601 18.6053 18.0817 18.3631 17.9336L17.8413 18.7867ZM17.2029 18.6301C17.4709 18.6301 17.6735 18.6794 17.8327 18.7813L18.3716 17.9389C17.9994 17.7008 17.5889 17.6301 17.2029 17.6301V18.6301ZM15.812 19.9656C15.8343 19.2465 16.4603 18.6301 17.2029 18.6301V17.6301C15.9219 17.6301 14.8515 18.6737 14.8125 19.9346L15.812 19.9656ZM13.1968 22.5001C14.6315 22.5001 15.8122 21.3927 15.8122 19.9501H14.8122C14.8122 20.8075 14.1126 21.5001 13.1968 21.5001V22.5001ZM11.8069 22.5001H13.1968V21.5001H11.8069V22.5001ZM9.18125 19.9501C9.18125 21.3942 10.3636 22.5001 11.8069 22.5001V21.5001C10.8793 21.5001 10.1813 20.806 10.1813 19.9501H9.18125ZM7.80085 18.6301C8.54449 18.6301 9.16662 19.2465 9.18136 19.9604L10.1811 19.9398C10.155 18.6737 9.08069 17.6301 7.80085 17.6301V18.6301ZM7.17851 18.7764C7.32177 18.6811 7.51829 18.6301 7.80085 18.6301V17.6301C7.40892 17.6301 6.99227 17.6992 6.62455 17.9439L7.17851 18.7764ZM5.81825 19.1601C6.24892 19.1601 6.7496 19.0391 7.1624 18.7867L6.64066 17.9336C6.3994 18.0811 6.08252 18.1601 5.81825 18.1601V19.1601ZM3.56869 17.8745C4.03683 18.6668 4.90572 19.1601 5.81825 19.1601V18.1601C5.25917 18.1601 4.71776 17.8534 4.42965 17.3658L3.56869 17.8745ZM2.86294 16.6734L3.56809 17.8734L4.43025 17.3668L3.7251 16.1668L2.86294 16.6734ZM2.84671 14.1098C2.3632 14.9026 2.40131 15.8799 2.86183 16.6715L3.72621 16.1687C3.43048 15.6603 3.42771 15.0777 3.70046 14.6305L2.84671 14.1098ZM3.85126 13.1414C3.42976 13.3719 3.04917 13.7371 2.83456 14.1308L3.7126 14.6094C3.82502 14.4032 4.05761 14.1683 4.33103 14.0188L3.85126 13.1414ZM4.3145 12.6696C4.15436 12.9185 4.03164 13.0526 3.87141 13.131L4.31089 14.0292C4.72295 13.8276 4.96814 13.5018 5.15545 13.2107L4.3145 12.6696ZM3.81756 10.8713C4.45494 11.2455 4.67 12.0706 4.30513 12.6847L5.16483 13.1955C5.82192 12.0896 5.4238 10.6547 4.32386 10.0089L3.81756 10.8713ZM2.88352 7.35656C2.16135 8.58392 2.56592 10.1662 3.82528 10.8757L4.31613 10.0045C3.55202 9.57401 3.30254 8.61633 3.7454 7.86368L2.88352 7.35656ZM3.5667 6.17918L2.88199 7.35918L3.74692 7.86107L4.43164 6.68107L3.5667 6.17918ZM7.12788 5.23527C5.86659 4.51944 4.30059 4.95333 3.57018 6.17328L4.42816 6.68697C4.88322 5.92692 5.85167 5.6608 6.6343 6.10497L7.12788 5.23527ZM9.01995 4.71876C8.63643 5.34423 7.77231 5.58305 7.11862 5.23015L6.64356 6.1101C7.76808 6.71719 9.21358 6.31602 9.87245 5.24149L9.01995 4.71876ZM9.18241 4.13411C9.19426 4.30809 9.14245 4.50877 9.01443 4.72798L9.87797 5.23226C10.077 4.89147 10.2091 4.49215 10.1801 4.06614L9.18241 4.13411ZM9.54765 2.76844C9.30042 3.15042 9.1556 3.62369 9.18194 4.12629L10.1806 4.07395C10.166 3.79656 10.246 3.52983 10.3872 3.3118L9.54765 2.76844ZM11.7629 1.5003C10.8483 1.52482 10.0075 2.01418 9.54053 2.77978L10.3943 3.30046C10.6836 2.82607 11.2122 2.51542 11.7897 2.49994L11.7629 1.5003ZM13.2172 1.50012H11.7763V2.50012H13.2172V1.50012ZM15.4632 2.77978C15.0009 2.02175 14.1601 1.50012 13.2172 1.50012V2.50012C13.7868 2.50012 14.3155 2.81849 14.6094 3.30046L15.4632 2.77978ZM15.8107 4.13931C15.8515 3.62024 15.6878 3.14609 15.4626 2.77876L14.6101 3.30149C14.7527 3.53416 14.8343 3.8 14.8138 4.06094L15.8107 4.13931ZM15.9791 4.72798C15.851 4.50877 15.7992 4.30809 15.8111 4.13411L14.8134 4.06614C14.7844 4.49215 14.9165 4.89147 15.1155 5.23226L15.9791 4.72798ZM17.8872 5.22902C17.2206 5.58481 16.3561 5.3426 15.9735 4.71876L15.121 5.24149C15.7809 6.31764 17.226 6.71544 18.3581 6.11123L17.8872 5.22902ZM21.4253 6.17656C20.7049 4.95224 19.1251 4.51908 17.874 5.23635L18.3713 6.1039C19.1436 5.66116 20.1187 5.92801 20.5634 6.68368L21.4253 6.17656ZM22.1115 7.35918L21.4268 6.17918L20.5619 6.68107L21.2466 7.86107L22.1115 7.35918ZM21.1663 10.8768C22.4372 10.168 22.8442 8.58293 22.108 7.35328L21.25 7.86697C21.6993 8.61732 21.4523 9.57227 20.6792 10.0035L21.1663 10.8768ZM20.6963 12.681C20.3251 12.0685 20.5386 11.2455 21.1759 10.8713L20.6696 10.0089C19.5697 10.6547 19.1699 12.0917 19.8411 13.1993L20.6963 12.681ZM21.1221 13.131C20.9632 13.0533 20.8411 12.9199 20.6964 12.6811L19.841 13.1991C20.0234 13.5003 20.2692 13.827 20.6826 14.0292L21.1221 13.131ZM12.5121 14.3301C11.1688 14.3301 10.1097 13.2893 10.1097 12.0101H9.10972C9.10972 13.871 10.6464 15.3301 12.5121 15.3301V14.3301ZM14.8838 12.0101C14.8838 13.2961 13.8484 14.3301 12.5121 14.3301V15.3301C14.3847 15.3301 15.8838 13.8641 15.8838 12.0101H14.8838ZM12.5121 9.68012C13.846 9.68012 14.8838 10.7219 14.8838 12.0101H15.8838C15.8838 10.1584 14.3871 8.68012 12.5121 8.68012V9.68012ZM10.1097 12.0101C10.1097 10.7287 11.1711 9.68012 12.5121 9.68012V8.68012C10.6441 8.68012 9.10972 10.1515 9.10972 12.0101H10.1097Z" fill="white"/>
</g>
</g>
</g>
<defs>
<radialGradient id="paint0_radial_98_52013" cx="0" cy="0" r="1" gradientUnits="userSpaceOnUse" gradientTransform="translate(5.54464 3.25012) rotate(64.9831) scale(33.6971 32.6307)">
<stop stop-color="#FF457D"/>
<stop offset="1" stop-color="#FF8640"/>
</radialGradient>
</defs>
</svg>
